HIERARCHY
ROOT Hips
{
	OFFSET -0.001795 -0.223333 0.028219
	CHANNELS 6 Xposition Yposition Zposition Zrotation Yrotation Xrotation 
	JOINT LeftUpLeg
	{
		OFFSET 0.069520 -0.091406 -0.006815
		CHANNELS 3 Zrotation Yrotation Xrotation
		JOINT LeftLeg
		{
			OFFSET 0.034277 -0.375199 -0.004496
			CHANNELS 3 Zrotation Yrotation Xrotation
			JOINT LeftFoot
			{
				OFFSET -0.013596 -0.397961 -0.043693
				CHANNELS 3 Zrotation Yrotation Xrotation
				JOINT LeftToe
				{
					OFFSET 0.026358 -0.055791 0.119288
					CHANNELS 3 Zrotation Yrotation Xrotation
					End Site
					{
						OFFSET 0.000000 0.000000 0.000000
					}
				}
			}
		}
	}
	JOINT RightUpLeg
	{
		OFFSET -0.067670 -0.090522 -0.004320
		CHANNELS 3 Zrotation Yrotation Xrotation
		JOINT RightLeg
		{
			OFFSET -0.038290 -0.382569 -0.008850
			CHANNELS 3 Zrotation Yrotation Xrotation
			JOINT RightFoot
			{
				OFFSET 0.015774 -0.398415 -0.042312
				CHANNELS 3 Zrotation Yrotation Xrotation
				JOINT RightToe
				{
					OFFSET -0.025372 -0.048144 0.123348
					CHANNELS 3 Zrotation Yrotation Xrotation
					End Site
					{
						OFFSET 0.000000 0.000000 0.000000
					}
				}
			}
		}
	}
	JOINT Spine
	{
		OFFSET -0.002533 0.108963 -0.026696
		CHANNELS 3 Zrotation Yrotation Xrotation
		JOINT Spine1
		{
			OFFSET 0.005487 0.135180 0.001092
			CHANNELS 3 Zrotation Yrotation Xrotation
			JOINT Spine2
			{
				OFFSET 0.001457 0.052922 0.025425
				CHANNELS 3 Zrotation Yrotation Xrotation
				JOINT Neck
				{
					OFFSET -0.002778 0.213870 -0.042857
					CHANNELS 3 Zrotation Yrotation Xrotation
					JOINT Head
					{
						OFFSET 0.005152 0.064970 0.051349
						CHANNELS 3 Zrotation Yrotation Xrotation
						End Site
						{
							OFFSET 0.000000 0.000000 0.000000
						}
					}
				}
				JOINT LeftShoulder
				{
					OFFSET 0.078845 0.121749 -0.034090
					CHANNELS 3 Zrotation Yrotation Xrotation
					JOINT LeftArm
					{
						OFFSET 0.090977 0.030469 -0.008868
						CHANNELS 3 Zrotation Yrotation Xrotation
						JOINT LeftForeArm
						{
							OFFSET 0.259612 -0.012772 -0.027456
							CHANNELS 3 Zrotation Yrotation Xrotation
							JOINT LeftHand
							{
								OFFSET 0.249234 0.008986 -0.001171
								CHANNELS 3 Zrotation Yrotation Xrotation
								End Site
								{
									OFFSET 0.000000 0.000000 0.000000
								}
							}
						}
					}
				}
				JOINT RightShoulder
				{
					OFFSET -0.081759 0.118833 -0.038615
					CHANNELS 3 Zrotation Yrotation Xrotation
					JOINT RightArm
					{
						OFFSET -0.096012 0.032551 -0.009143
						CHANNELS 3 Zrotation Yrotation Xrotation
						JOINT RightForeArm
						{
							OFFSET -0.253742 -0.013329 -0.021401
							CHANNELS 3 Zrotation Yrotation Xrotation
							JOINT RightHand
							{
								OFFSET -0.255298 0.007772 -0.005559
								CHANNELS 3 Zrotation Yrotation Xrotation
								End Site
								{
									OFFSET 0.000000 0.000000 0.000000
								}
							}
						}
					}
				}
			}
		}
	}
}
MOTION
Frames: 16
Frame Time: 0.050000
-0.140297 1.004890 -0.016720 -2.841562 7.281113 -0.813419 1.547212 1.063007 20.031460 6.176220 -4.363407 31.064913 -7.342940 -4.257251 16.468299 0.000000 0.000000 0.000000 7.581808 2.801315 -18.551215 1.925457 -0.203284 22.042238 -4.534749 -14.255196 32.660468 0.000000 0.000000 0.000000 -0.235221 -0.411475 9.403307 9.254968 -6.831761 12.677925 -1.305169 -9.699507 -12.682658 -3.733696 2.819152 -7.684718 0.000000 0.000000 0.000000 -20.681209 -3.797940 1.074601 -37.804272 -7.358458 -1.442330 -131.777690 -55.422590 106.807314 0.000000 0.000000 0.000000 7.784398 -3.404075 -2.801369 37.825019 -26.917057 -10.306478 97.519095 43.568945 46.437615 0.000000 0.000000 0.000000 
-0.145173 0.955930 -0.016508 -3.444109 3.716984 -2.901869 3.206171 0.743739 14.928405 3.101958 -4.990690 50.467227 -5.303869 2.528767 27.246513 0.000000 0.000000 0.000000 10.766919 2.894401 -15.868765 1.356262 0.258437 30.516479 -5.983763 -16.733998 32.321286 0.000000 0.000000 0.000000 1.027590 -0.595129 11.127358 7.044191 -5.246211 13.351144 0.125750 -8.139204 -9.941755 -6.607366 4.399804 -13.955974 0.000000 0.000000 0.000000 -22.650586 0.874900 -1.484775 -36.795885 -4.477492 -2.504929 -127.149180 -53.641269 98.691091 0.000000 0.000000 0.000000 8.931450 0.882010 -1.370635 42.405455 -17.852810 -8.797927 97.574564 54.591893 58.655127 0.000000 0.000000 0.000000 
-0.150565 0.910399 -0.025054 -2.820270 0.648187 -5.155169 3.137201 0.492674 8.120647 2.383324 -5.037098 63.690192 -2.651924 3.520117 20.781635 0.000000 0.000000 0.000000 11.781729 2.360706 -12.133257 0.145323 1.137985 31.860547 -9.803417 -22.070403 24.988601 0.000000 0.000000 0.000000 0.890181 -0.679312 13.704052 4.674156 -3.540340 13.885362 0.332411 -2.804391 -9.568434 -4.952859 3.691257 -13.595661 0.000000 0.000000 0.000000 -23.710386 0.544636 -2.538097 -34.432373 4.037621 -4.243824 -119.555616 -52.914131 85.902044 0.000000 0.000000 0.000000 12.907099 3.888439 -0.128435 41.896481 -8.696293 -5.582882 101.481589 63.424989 74.412333 0.000000 0.000000 0.000000 
-0.153024 0.903899 -0.035854 -1.450565 -1.551666 -4.748878 1.666562 -0.380452 -4.992378 0.620329 -2.988399 71.835887 0.292925 6.126045 15.583644 0.000000 0.000000 0.000000 10.701306 0.644880 -4.021869 -1.166866 1.246764 20.482211 -6.301390 -15.218999 -2.021735 0.000000 0.000000 0.000000 1.174838 -0.734610 14.985745 0.278767 -0.483845 13.863457 1.726802 2.058708 -9.725739 -6.636289 4.803440 -13.311531 0.000000 0.000000 0.000000 -23.328319 1.209490 -3.856146 -32.085410 10.089133 -5.102752 -116.458790 -51.410899 78.990126 0.000000 0.000000 0.000000 12.370293 5.420144 1.185816 44.794989 0.556936 -2.859418 110.548277 69.077521 91.865311 0.000000 0.000000 0.000000 
-0.153502 0.936188 -0.039852 0.692286 -3.202970 -3.268785 -0.442316 -1.680541 -18.313726 -1.229866 -0.199025 68.380619 1.269765 7.332471 14.911019 0.000000 0.000000 0.000000 6.850458 -1.107285 6.271721 -1.464161 0.660253 8.935529 -2.205024 -4.657257 -1.919910 0.000000 0.000000 0.000000 -0.803926 -0.422934 14.258526 -1.870845 0.958169 6.406681 1.961689 8.159198 -3.684508 -3.248283 3.065720 -8.855170 0.000000 0.000000 0.000000 -20.825775 3.101706 -5.518781 -30.177004 15.427108 -6.043975 -118.093963 -45.774204 71.517769 0.000000 0.000000 0.000000 10.156813 4.130616 1.557634 47.327415 4.723851 -2.101417 129.318278 67.658589 116.469354 0.000000 0.000000 0.000000 
-0.153488 0.984981 -0.035036 2.887785 -2.841581 -0.701409 -5.415267 -3.180398 -23.840390 -0.546187 -0.703299 47.863774 2.241205 9.219152 17.519705 0.000000 0.000000 0.000000 2.930395 -1.676354 13.438370 -2.202196 0.585711 5.837295 0.897110 -1.036847 5.946143 0.000000 0.000000 0.000000 -3.176691 -0.076344 10.163026 -3.381375 1.800089 7.150765 2.144564 11.125008 -6.718843 -1.943720 1.814348 -4.595803 0.000000 0.000000 0.000000 -18.239660 4.857166 -6.444153 -27.179224 19.135942 -5.913708 -117.685006 -43.467569 66.809219 0.000000 0.000000 0.000000 9.195562 5.131567 2.349031 49.111642 5.024737 -1.711379 132.590806 66.334275 121.131081 0.000000 0.000000 0.000000 
-0.153471 1.023328 -0.025066 3.605228 -2.058682 1.793034 -7.647962 -3.553367 -23.382397 1.479492 -1.047454 20.599766 -1.177859 7.066755 28.445865 0.000000 0.000000 0.000000 0.974556 -1.694743 16.105392 -2.709304 1.230092 13.932304 2.222214 -1.448864 13.007578 0.000000 0.000000 0.000000 -4.153982 0.047119 6.144209 -2.359992 1.187929 7.387306 -0.326177 13.129030 -8.284864 0.499583 -0.300924 -1.820310 0.000000 0.000000 0.000000 -13.732865 3.823492 -5.237342 -29.007353 21.834420 -7.000218 -117.098204 -42.818274 63.316766 0.000000 0.000000 0.000000 8.542779 4.232394 2.281881 49.106262 2.295584 -2.609665 129.601260 60.236529 112.956336 0.000000 0.000000 0.000000 
-0.154214 1.025515 -0.014437 2.745795 0.391342 2.136024 -9.046964 -3.490919 -20.943899 3.055396 -0.797035 7.472483 -4.802208 9.112202 51.769393 0.000000 0.000000 0.000000 1.107110 -1.851515 16.353996 -0.462760 1.398562 30.159839 0.808110 -7.682263 26.672431 0.000000 0.000000 0.000000 -3.571310 0.017253 4.014677 -3.506313 1.738280 8.581727 0.728444 11.222198 -8.745089 0.928234 -0.973788 0.261386 0.000000 0.000000 0.000000 -14.351432 1.381577 -4.203627 -29.555996 21.696774 -7.060555 -117.422533 -46.323856 69.149883 0.000000 0.000000 0.000000 8.840874 4.742635 2.376047 47.032429 -1.479413 -3.911079 124.159490 56.792398 100.623876 0.000000 0.000000 0.000000 
-0.155594 0.991042 -0.006030 1.692325 1.565170 -0.673862 -10.521133 -3.315601 -18.189033 2.920086 -1.220245 14.129554 3.522807 17.274199 74.755473 0.000000 0.000000 0.000000 0.813856 -1.595791 14.208898 2.383577 0.397707 51.725751 -1.391549 -11.919710 34.258671 0.000000 0.000000 0.000000 -4.427287 0.013529 4.833886 -0.940511 0.122084 12.357292 -0.294909 9.120104 -9.681271 -0.192879 0.283417 -2.550133 0.000000 0.000000 0.000000 -18.467239 0.679990 -4.760562 -27.755125 17.457748 -5.475524 -118.499073 -50.908430 77.391246 0.000000 0.000000 0.000000 9.336913 4.106461 1.906831 44.899634 -4.090549 -4.607257 116.899026 54.700755 87.865827 0.000000 0.000000 0.000000 
-0.158310 0.939287 -0.004914 1.633165 2.834084 -4.431693 -11.816692 -2.451222 -12.429875 2.198643 -1.828547 24.834497 7.859734 19.214363 64.529836 0.000000 0.000000 0.000000 -2.029329 -0.707250 8.339237 4.175524 -1.652082 73.671603 -1.106746 -10.908377 29.715138 0.000000 0.000000 0.000000 -5.058267 -0.017341 9.923603 -0.265267 -0.280776 10.542281 0.016125 5.726364 -6.699517 1.088754 -0.051842 -6.271009 0.000000 0.000000 0.000000 -25.023020 -2.742673 -3.578606 -24.508154 8.814556 -3.252275 -116.522743 -58.288207 85.944004 0.000000 0.000000 0.000000 11.753262 2.427780 0.781043 40.864683 -7.974685 -5.651642 108.212543 51.928887 72.912206 0.000000 0.000000 0.000000 
-0.164682 0.908406 -0.011516 1.309208 5.447199 -7.080365 -12.530393 -0.752573 -3.535934 3.185520 -2.737935 28.605418 5.419770 14.594863 17.896410 0.000000 0.000000 0.000000 -3.339161 0.174375 -2.711179 3.895755 -3.849206 89.402282 -1.655492 -10.895677 24.251118 0.000000 0.000000 0.000000 -5.011654 -0.139191 15.720911 0.694886 -0.873199 8.860478 -0.701861 -1.856012 -4.882289 -1.461047 1.678083 -9.334907 0.000000 0.000000 0.000000 -29.460362 -4.111748 -1.051207 -23.101833 -2.033173 -1.838730 -115.937496 -66.535841 96.714669 0.000000 0.000000 0.000000 15.039494 2.965896 -0.137696 37.425530 -11.256710 -6.043817 97.827123 51.232187 58.749312 0.000000 0.000000 0.000000 
-0.173861 0.919469 -0.017693 -0.473908 6.967989 -7.309268 -9.733175 1.207831 7.338510 4.973525 -2.747557 22.191128 3.732147 0.940974 -13.369436 0.000000 0.000000 0.000000 -1.297862 1.301102 -16.285376 3.574722 -4.977017 90.253927 -2.895958 -12.285075 21.298156 0.000000 0.000000 0.000000 -4.364104 -0.318620 17.926787 3.654023 -2.593237 7.655878 -1.231224 -7.985134 -5.157445 -3.856334 2.978163 -8.496280 0.000000 0.000000 0.000000 -27.383136 -5.496477 1.889756 -26.296530 -8.848516 -1.322887 -124.576515 -72.106090 114.271309 0.000000 0.000000 0.000000 13.327912 2.343711 -1.162015 34.807243 -16.945691 -6.907485 94.516585 46.644337 48.535241 0.000000 0.000000 0.000000 
-0.183288 0.953815 -0.017798 -2.388615 8.411383 -4.854834 -4.638968 1.831310 16.375042 6.374564 -1.945250 12.191606 0.619324 -8.547934 -13.346143 0.000000 0.000000 0.000000 0.629757 2.265768 -26.003718 4.116981 -5.124103 74.299411 -5.341779 -15.648147 22.767643 0.000000 0.000000 0.000000 -2.519446 -0.519430 16.024384 5.343633 -3.553583 7.028792 -0.098925 -15.056992 -4.741503 -7.917941 5.384350 -8.996222 0.000000 0.000000 0.000000 -25.091553 -4.288281 3.446325 -29.239112 -12.989339 -1.257138 -138.750129 -72.538774 135.374980 0.000000 0.000000 0.000000 9.763179 1.805461 -1.632811 33.025092 -20.073207 -7.319049 92.857541 42.714989 40.030100 0.000000 0.000000 0.000000 
-0.191325 0.991369 -0.013203 -4.175881 8.021861 -2.011812 -0.879526 1.505828 20.384781 6.308849 -1.682394 10.175535 -2.040092 -8.923232 -6.048062 0.000000 0.000000 0.000000 3.600653 3.123702 -27.941631 3.314172 -1.857374 45.540522 -4.711283 -14.063455 24.013697 0.000000 0.000000 0.000000 -1.372963 -0.487138 12.799517 8.574778 -5.502438 7.558756 -0.120326 -16.258984 -6.909984 -10.890190 8.243524 -2.446438 0.000000 0.000000 0.000000 -24.051033 -5.010938 4.189544 -31.081884 -11.065710 -1.645721 -134.498354 -68.097008 127.120012 0.000000 0.000000 0.000000 6.091180 2.269936 -0.739707 33.989791 -23.420549 -8.569978 93.312646 42.506704 39.473729 0.000000 0.000000 0.000000 
-0.197764 1.006225 -0.006479 -4.038756 6.955015 0.490156 -0.097216 1.420722 20.169942 5.363561 -2.393769 18.564054 -3.629844 -5.278814 3.516522 0.000000 0.000000 0.000000 6.199289 3.596631 -26.460748 0.634321 0.241470 26.739148 -1.715629 -9.372895 23.158082 0.000000 0.000000 0.000000 -0.985581 -0.354007 9.610169 9.051880 -6.190364 10.277344 -0.015207 -15.967679 -10.114965 -11.486339 8.562898 -2.454098 0.000000 0.000000 0.000000 -21.326803 -4.345544 3.473127 -33.775030 -6.631518 -2.417147 -127.936904 -64.541274 115.605573 0.000000 0.000000 0.000000 5.855703 1.593326 -0.983442 34.613290 -25.204753 -9.114477 92.175570 41.966698 38.064953 0.000000 0.000000 0.000000 
-0.203700 0.984387 0.001766 -3.402457 8.599014 -0.768508 1.366116 0.949274 18.393368 4.434720 -4.561550 36.098762 -4.041780 1.649941 18.221346 0.000000 0.000000 0.000000 7.264975 3.205725 -22.190006 1.117080 -0.093572 25.909113 -2.645902 -10.246563 21.574952 0.000000 0.000000 0.000000 -0.879594 -0.390019 9.918125 10.281353 -7.089009 10.194850 -1.999676 -14.886314 -8.455599 -12.059363 8.796806 -3.697575 0.000000 0.000000 0.000000 -21.547938 -2.548596 1.782589 -33.937464 -4.144557 -2.931984 -116.990429 -60.038655 95.907968 0.000000 0.000000 0.000000 8.091702 2.791820 -0.853724 37.696093 -24.301119 -9.725561 89.466052 47.444598 43.193539 0.000000 0.000000 0.000000 
